REM DIRINDEX 1\2\4,1\2\5,1\3\6,1\3\7,1\3\8
REM DIRNAME cjc094,folder01,folder02,folder03,folder04,folder05,folder06,folder07
TITLE ""
FILE "LV2_030_WORDS.mp3" MP3
  TRACK 01 AUDIO
    TITLE "0:"
    INDEX 01 00:00:00
  TRACK 02 AUDIO
    TITLE "6:cjc094_1126"
    INDEX 01 00:00:03
  TRACK 03 AUDIO
    TITLE "0:"
    INDEX 01 00:02:61
  TRACK 04 AUDIO
    TITLE "7:cjc094_1127"
    INDEX 01 00:03:45
  TRACK 05 AUDIO
    TITLE "0:"
    INDEX 01 00:04:52
  TRACK 06 AUDIO
    TITLE "8:cjc094_1128"
    INDEX 01 00:04:70
  TRACK 07 AUDIO
    TITLE "0:"
    INDEX 01 00:06:49
  TRACK 08 AUDIO
    TITLE "7:cjc094_1129"
    INDEX 01 00:07:27
  TRACK 09 AUDIO
    TITLE "0:"
    INDEX 01 00:08:30
  TRACK 10 AUDIO
    TITLE "8:cjc094_1130"
    INDEX 01 00:08:46
  TRACK 11 AUDIO
    TITLE "0:"
    INDEX 01 00:11:11
  TRACK 12 AUDIO
    TITLE "7:cjc094_1131"
    INDEX 01 00:11:56
  TRACK 13 AUDIO
    TITLE "0:"
    INDEX 01 00:12:58
  TRACK 14 AUDIO
    TITLE "8:cjc094_1132"
    INDEX 01 00:12:71
  TRACK 15 AUDIO
    TITLE "0:"
    INDEX 01 00:14:74
  TRACK 16 AUDIO
    TITLE "7:cjc094_1133"
    INDEX 01 00:15:46
  TRACK 17 AUDIO
    TITLE "0:"
    INDEX 01 00:16:59
  TRACK 18 AUDIO
    TITLE "8:cjc094_1134"
    INDEX 01 00:16:73
  TRACK 19 AUDIO
    TITLE "0:"
    INDEX 01 00:18:05
  TRACK 20 AUDIO
    TITLE "7:cjc094_1135"
    INDEX 01 00:18:54
  TRACK 21 AUDIO
    TITLE "0:"
    INDEX 01 00:19:52
  TRACK 22 AUDIO
    TITLE "8:cjc094_1136"
    INDEX 01 00:19:65
  TRACK 23 AUDIO
    TITLE "0:"
    INDEX 01 00:22:30
  TRACK 24 AUDIO
    TITLE "7:cjc094_1137"
    INDEX 01 00:23:03
  TRACK 25 AUDIO
    TITLE "0:"
    INDEX 01 00:24:04
  TRACK 26 AUDIO
    TITLE "8:cjc094_1138"
    INDEX 01 00:24:18
  TRACK 27 AUDIO
    TITLE "0:"
    INDEX 01 00:26:07
  TRACK 28 AUDIO
    TITLE "7:cjc094_1139"
    INDEX 01 00:26:66
  TRACK 29 AUDIO
    TITLE "0:"
    INDEX 01 00:27:61
  TRACK 30 AUDIO
    TITLE "8:cjc094_1140"
    INDEX 01 00:28:06
  TRACK 31 AUDIO
    TITLE "0:"
    INDEX 01 00:29:38
  TRACK 32 AUDIO
    TITLE "7:cjc094_1141"
    INDEX 01 00:30:16
  TRACK 33 AUDIO
    TITLE "0:"
    INDEX 01 00:31:14
  TRACK 34 AUDIO
    TITLE "8:cjc094_1142"
    INDEX 01 00:31:31
  TRACK 35 AUDIO
    TITLE "0:"
    INDEX 01 00:34:43
  TRACK 36 AUDIO
    TITLE "7:cjc094_1143"
    INDEX 01 00:35:14
  TRACK 37 AUDIO
    TITLE "0:"
    INDEX 01 00:36:13
  TRACK 38 AUDIO
    TITLE "8:cjc094_1144"
    INDEX 01 00:36:29
  TRACK 39 AUDIO
    TITLE "0:"
    INDEX 01 00:38:14
  TRACK 40 AUDIO
    TITLE "7:cjc094_1145"
    INDEX 01 00:38:59
  TRACK 41 AUDIO
    TITLE "0:"
    INDEX 01 00:39:68
  TRACK 42 AUDIO
    TITLE "8:cjc094_1146"
    INDEX 01 00:40:07
  TRACK 43 AUDIO
    TITLE "0:"
    INDEX 01 00:41:14
  TRACK 44 AUDIO
    TITLE "7:cjc094_1147"
    INDEX 01 00:41:65
  TRACK 45 AUDIO
    TITLE "0:"
    INDEX 01 00:42:59
  TRACK 46 AUDIO
    TITLE "8:cjc094_1148"
    INDEX 01 00:42:74
  TRACK 47 AUDIO
    TITLE "0:"
    INDEX 01 00:45:49
  TRACK 48 AUDIO
    TITLE "7:cjc094_1149"
    INDEX 01 00:46:21
  TRACK 49 AUDIO
    TITLE "0:"
    INDEX 01 00:47:23
  TRACK 50 AUDIO
    TITLE "8:cjc094_1150"
    INDEX 01 00:47:38
  TRACK 51 AUDIO
    TITLE "0:"
    INDEX 01 00:48:71
  TRACK 52 AUDIO
    TITLE "7:cjc094_1151"
    INDEX 01 00:49:49
  TRACK 53 AUDIO
    TITLE "0:"
    INDEX 01 00:50:50
  TRACK 54 AUDIO
    TITLE "8:cjc094_1152"
    INDEX 01 00:50:64
  TRACK 55 AUDIO
    TITLE "0:"
    INDEX 01 00:51:63
  TRACK 56 AUDIO
    TITLE "7:cjc094_1153"
    INDEX 01 00:52:37
  TRACK 57 AUDIO
    TITLE "0:"
    INDEX 01 00:53:41
  TRACK 58 AUDIO
    TITLE "8:cjc094_1154"
    INDEX 01 00:53:58
  TRACK 59 AUDIO
    TITLE "0:"
    INDEX 01 00:56:16
  TRACK 60 AUDIO
    TITLE "7:cjc094_1155"
    INDEX 01 00:56:59
  TRACK 61 AUDIO
    TITLE "0:"
    INDEX 01 00:57:64
  TRACK 62 AUDIO
    TITLE "8:cjc094_1156"
    INDEX 01 00:58:09
  TRACK 63 AUDIO
    TITLE "0:"
    INDEX 01 01:01:34
